<svg width="115" height="116" viewBox="0 0 115 116" fill="none" xmlns="http://www.w3.org/2000/svg">
<path d="M103.019 60.5999L102.915 61.9519L110.68 62.5521L110.455 65.4594L111.663 65.5528L112.217 58.3862L111.009 58.2928L110.784 61.2001L103.019 60.5999Z" fill="#DB5331"/>
<path d="M102.419 66.1078L104.461 67.6837L103.601 71.1174L101.057 71.5435L100.706 72.9403L110.859 71.131L102.752 64.7808L102.419 66.1078ZM105.48 68.4585L107.967 70.3811L104.867 70.9029L105.48 68.4585Z" fill="#DB5331"/>
<path d="M102.924 76.8273C102.01 78.9425 102.815 80.2572 104.104 80.8138C105.393 81.3704 106.902 81.0546 107.815 78.9394L108.828 76.5928L100.566 73.025L100.028 74.2699L103.399 75.7256L102.924 76.8273ZM107.178 77.3572L106.707 78.4479C106.274 79.4504 105.575 79.9197 104.661 79.5248C103.746 79.13 103.608 78.2993 104.041 77.2967L104.512 76.206L107.178 77.3572Z" fill="#DB5331"/>
<path d="M102.753 88.3344L103.562 87.2467L96.3428 81.873L95.5331 82.9608L98.8157 85.404L95.9856 89.2064L92.703 86.7632L91.8934 87.8509L99.1131 93.2246L99.9227 92.1368L96.9578 89.93L99.7879 86.1277L102.753 88.3344Z" fill="#DB5331"/>
<path d="M89.9697 95.3783L90.8078 96.2538L93.3649 93.8058L95.0827 95.6001L92.4389 98.1311L93.277 99.0066L96.9003 95.5379L90.6766 89.0367L87.0533 92.5054L87.8914 93.3809L90.5352 90.8499L92.5268 92.9303L89.9697 95.3783Z" fill="#DB5331"/>
<path d="M85.2841 101.696C86.0795 102.824 87.5205 103.306 89.4033 101.978L91.1684 100.733L85.9811 93.3781L84.873 94.1596L87.0655 97.2682L86.3202 97.7939L81.6859 96.4075L80.3425 97.355L85.3665 98.8777C84.8022 99.7015 84.5856 100.706 85.2841 101.696ZM88.7145 100.98C87.832 101.603 87.0015 101.675 86.4413 100.88C85.881 100.086 86.2204 99.318 87.103 98.6955L87.7502 98.2391L89.3617 100.524L88.7145 100.98Z" fill="#DB5331"/>
<path d="M77.3742 103.281L77.9159 104.365L81.0826 102.783L82.1929 105.005L78.9189 106.641L79.4607 107.725L83.9477 105.483L79.9247 97.4321L75.4377 99.6742L75.9795 100.758L79.2535 99.1224L80.5408 101.699L77.3742 103.281Z" fill="#DB5331"/>
<path d="M71.0657 104.069L71.7727 107.39L72.5926 110.126L73.903 109.733L73.0832 106.997L71.8589 103.831L71.0657 104.069ZM71.8526 101.804C71.6976 101.287 71.1483 101 70.6195 101.159C70.0792 101.321 69.8009 101.855 69.9559 102.372C70.1109 102.889 70.6373 103.183 71.1775 103.021C71.7063 102.862 72.0076 102.321 71.8526 101.804Z" fill="#DB5331"/>
<path d="M52.2381 102.901L50.8937 102.723L49.8764 110.445L46.9854 110.064L46.8271 111.265L53.9535 112.204L54.1118 111.003L51.2208 110.622L52.2381 102.901Z" fill="#DB5331"/>
<path d="M46.7316 101.994L45.0423 103.943L41.663 102.888L41.3821 100.324L40.0075 99.8953L41.237 110.134L48.0375 102.401L46.7316 101.994ZM44.2108 104.915L42.1501 107.289L41.8052 104.165L44.2108 104.915Z" fill="#DB5331"/>
<path d="M36.0436 101.916C33.9826 100.887 32.625 101.617 31.9975 102.873C31.3699 104.129 31.601 105.653 33.662 106.683L35.9485 107.825L39.9714 99.7742L38.7584 99.1681L37.117 102.453L36.0436 101.916ZM35.2772 106.135L34.2145 105.604C33.2377 105.116 32.8082 104.391 33.2534 103.5C33.6986 102.609 34.5357 102.518 35.5126 103.006L36.5753 103.537L35.2772 106.135Z" fill="#DB5331"/>
<path d="M24.6533 101.182L25.6984 102.046L31.4333 95.1097L30.3882 94.2457L27.7808 97.3993L24.1277 94.379L26.7351 91.2253L25.6901 90.3612L19.9552 97.2975L21.0003 98.1615L23.3554 95.313L27.0085 98.3334L24.6533 101.182Z" fill="#DB5331"/>
<path d="M18.2628 88.0153L17.3429 88.8045L19.6479 91.4912L17.7626 93.1086L15.3795 90.3308L14.4596 91.12L17.7257 94.927L24.5564 89.0668L21.2903 85.2598L20.3705 86.049L22.7536 88.8268L20.5678 90.7021L18.2628 88.0153Z" fill="#DB5331"/>
<path d="M12.2074 83.0061C11.0377 83.7384 10.4777 85.1507 11.7003 87.1036L12.8464 88.9344L20.4749 84.159L19.7554 83.0096L16.5311 85.028L16.0472 84.255L17.686 79.7039L16.8137 78.3104L15.0174 83.2432C14.2258 82.6345 13.2347 82.363 12.2074 83.0061ZM12.7339 86.4707C12.1609 85.5552 12.1348 84.7221 12.9587 84.2063C13.7826 83.6906 14.5308 84.0717 15.1039 84.9871L15.5241 85.6584L13.1542 87.142L12.7339 86.4707Z" fill="#DB5331"/>
<path d="M11.0771 75.1107L9.96621 75.5953L11.3816 78.8401L9.10484 79.8333L7.64143 76.4786L6.53053 76.9632L8.53612 81.5608L16.7854 77.9622L14.7798 73.3646L13.6689 73.8492L15.1323 77.2039L12.4925 78.3555L11.0771 75.1107Z" fill="#DB5331"/>
<path d="M10.6059 68.7268L7.25226 69.2566L4.4768 69.93L4.79938 71.2595L7.57484 70.586L10.8012 69.5315L10.6059 68.7268ZM12.8262 69.6328C13.3509 69.5055 13.6661 68.9721 13.5359 68.4357C13.4029 67.8876 12.884 67.5813 12.3593 67.7087C11.8345 67.836 11.5137 68.346 11.6467 68.8941C11.7769 69.4306 12.3014 69.7602 12.8262 69.6328Z" fill="#DB5331"/>
<path d="M12.7552 49.9651L13.0042 48.6321L5.3486 47.2022L5.88399 44.3358L4.69259 44.1133L3.37286 51.1791L4.56425 51.4016L5.09964 48.5352L12.7552 49.9651Z" fill="#DB5331"/>
<path d="M13.9409 44.5528L12.0834 42.7631L13.3146 39.4441L15.8899 39.2987L16.3907 37.9485L6.10096 38.6368L13.4651 45.8354L13.9409 44.5528ZM11.1561 41.8815L8.89408 39.6985L12.0325 39.5188L11.1561 41.8815Z" fill="#DB5331"/>
<path d="M14.547 33.9378C15.6821 31.9328 15.0232 30.5393 13.8014 29.8476C12.5796 29.1558 11.0456 29.3078 9.91052 31.3128L8.65123 33.537L16.4831 37.9711L17.1512 36.7911L13.9558 34.982L14.547 33.9378ZM10.374 32.9542L10.9593 31.9203C11.4973 30.9701 12.2429 30.5786 13.1097 31.0693C13.9764 31.56 14.0244 32.4008 13.4864 33.3511L12.9011 34.3849L10.374 32.9542Z" fill="#DB5331"/>
<path d="M15.9259 22.5102L15.0062 23.5066L21.6194 29.6112L22.5391 28.6148L19.5323 25.8392L22.7474 22.3563L25.7542 25.1318L26.6739 24.1354L20.0608 18.0309L19.141 19.0272L21.8568 21.5342L18.6417 25.0171L15.9259 22.5102Z" fill="#DB5331"/>
<path d="M29.2624 16.9329L28.5211 15.974L25.7204 18.1391L24.2012 16.1738L27.0968 13.9353L26.3556 12.9764L22.3871 16.0443L27.8915 23.1647L31.86 20.0969L31.1187 19.138L28.2231 21.3765L26.4616 19.098L29.2624 16.9329Z" fill="#DB5331"/>
<path d="M34.5986 11.1106C33.9276 9.90477 32.546 9.27283 30.5327 10.3931L28.6452 11.4434L33.0214 19.3078L34.2063 18.6485L32.3566 15.3245L33.1536 14.881L37.6142 16.7521L39.0508 15.9527L34.217 13.9047C34.8657 13.1455 35.1879 12.1697 34.5986 11.1106ZM31.1115 11.458C32.0552 10.9329 32.8886 10.9498 33.3612 11.7992C33.8339 12.6485 33.4148 13.3761 32.471 13.9013L31.779 14.2864L30.4194 11.8431L31.1115 11.458Z" fill="#DB5331"/>
<path d="M42.4301 10.4195L42.0043 9.28471L38.6899 10.5283L37.8173 8.20266L41.244 6.91688L40.8182 5.78213L36.122 7.54428L39.2837 15.9706L43.98 14.2085L43.5542 13.0737L40.1275 14.3595L39.1157 11.6631L42.4301 10.4195Z" fill="#DB5331"/>
<path d="M49.0556 10.2017L48.7056 6.82456L48.1812 4.01711L46.8364 4.26828L47.3608 7.07573L48.2416 10.3537L49.0556 10.2017ZM48.0323 12.3704C48.1315 12.9013 48.6473 13.2444 49.1899 13.143C49.7443 13.0395 50.0778 12.5377 49.9787 12.0069C49.8795 11.4761 49.3874 11.1285 48.833 11.2321C48.2903 11.3334 47.9332 11.8396 48.0323 12.3704Z" fill="#DB5331"/>
<path d="M67.3749 13.2507L68.6939 13.5654L70.5015 5.99007L73.3379 6.66689L73.6192 5.48799L66.6275 3.81961L66.3462 4.99851L69.1826 5.67534L67.3749 13.2507Z" fill="#DB5331"/>
<path d="M72.9566 14.763L74.8412 13.0018L78.0912 14.4051L78.1015 16.9846L79.4235 17.5554L79.2751 7.24372L71.7007 14.2207L72.9566 14.763ZM75.7701 12.122L78.0686 9.9774L78.0836 13.1209L75.7701 12.122Z" fill="#DB5331"/>
<path d="M83.4843 15.8858C85.4282 17.1227 86.8538 16.5363 87.6075 15.3517C88.3612 14.1672 88.2884 12.6274 86.3445 11.3906L84.188 10.0185L79.3566 17.6118L80.5007 18.3397L82.4719 15.2417L83.4843 15.8858ZM84.6814 11.769L85.6837 12.4067C86.6051 12.9929 86.9576 13.7577 86.4229 14.5981C85.8883 15.4384 85.0461 15.443 84.1248 14.8568L83.1225 14.2191L84.6814 11.769Z" fill="#DB5331"/>
<path d="M94.8452 17.8409L93.8969 16.8717L87.4639 23.1659L88.4122 24.1351L91.3371 21.2734L94.652 24.6614L91.7272 27.5232L92.6755 28.4924L99.1085 22.1982L98.1601 21.2289L95.5183 23.8138L92.2034 20.4258L94.8452 17.8409Z" fill="#DB5331"/>
<path d="M99.9254 31.7168L100.923 31.0292L98.915 28.1141L100.96 26.7048L103.037 29.7186L104.035 29.031L101.189 24.9005L93.778 30.0068L96.6239 34.1373L97.6219 33.4496L95.5454 30.4357L97.9169 28.8017L99.9254 31.7168Z" fill="#DB5331"/>
<path d="M105.335 37.1479C106.574 36.5403 107.277 35.1932 106.262 33.1246L105.311 31.1853L97.2305 35.1484L97.8276 36.3659L101.243 34.6908L101.645 35.5096L99.5449 39.8674L100.269 41.3435L102.564 36.6222C103.289 37.3094 104.247 37.6816 105.335 37.1479ZM105.169 33.6476C105.644 34.6172 105.584 35.4486 104.711 35.8766C103.839 36.3046 103.134 35.8484 102.658 34.8788L102.31 34.1677L104.82 32.9365L105.169 33.6476Z" fill="#DB5331"/>
<path d="M105.717 45.3632L106.874 45.0022L105.819 41.6229L108.19 40.8829L109.281 44.3767L110.438 44.0157L108.943 39.2274L100.352 41.9085L101.846 46.6968L103.003 46.3357L101.913 42.8419L104.662 41.9839L105.717 45.3632Z" fill="#DB5331"/>
<path d="M105.502 51.744L108.893 51.5756L111.724 51.2026L111.546 49.8463L108.714 50.2194L105.393 50.9231L105.502 51.744ZM103.391 50.606C102.855 50.6765 102.485 51.1732 102.557 51.7204C102.631 52.2796 103.114 52.6396 103.65 52.569C104.185 52.4985 104.558 52.0257 104.485 51.4665C104.413 50.9192 103.926 50.5355 103.391 50.606Z" fill="#DB5331"/>
</svg>
